<svg width="250" height="250" xmlns="http://www.w3.org/2000/svg">
    <rect width="100%" height="100%" fill="#b52068"/>
    <path stroke="null" fill="#fff" d="m185.75913,173.24698c-14.90358,18.60525 -37.02317,29.27098 -60.69318,29.27098s-45.86066,-10.66572 -60.76425,-29.27098c-22.39737,-27.9531 -22.39737,-68.54874 0,-96.50184c25.87293,-32.28787 72.34731,-38.79971 105.79801,-14.81314c3.86317,2.77141 6.29865,7.11263 6.68626,11.91899c0.40699,4.98724 -1.38893,9.87758 -4.9291,13.41775l-28.59266,28.59266c-1.21451,1.21451 -2.85539,1.89283 -4.56733,1.89283s-3.35928,-0.67832 -4.56733,-1.89283c-2.70681,-2.71327 -6.4537,-4.05698 -10.26519,-3.73397c-3.86963,0.33593 -7.26768,2.31274 -9.55457,5.57512c-2.95875,4.22494 -2.95875,10.36209 0,14.58704c2.2869,3.26238 5.67848,5.24565 9.55457,5.57512c3.83733,0.33593 7.55838,-1.02717 10.26519,-3.73397c2.51946,-2.52592 6.60874,-2.52592 9.13466,0c2.52592,2.52592 2.52592,6.60874 0,9.13466c-5.40715,5.41361 -12.89448,8.12688 -20.51746,7.4744c-7.62945,-0.67186 -14.5612,-4.69007 -19.01224,-11.03395c-6.07255,-8.66307 -6.07255,-20.76295 0,-29.42602c4.45105,-6.34388 11.3828,-10.36209 19.01224,-11.03395c5.41361,-0.43929 10.782,0.78168 15.36872,3.48203l9.33493,-9.33493c-14.66456,-10.43962 -35.02052,-9.44475 -48.59977,2.97813c0.1938,0.89796 0.30363,1.82176 0.30363,2.77787c0,6.35034 -4.58671,11.62828 -10.62696,12.71359c-4.90326,13.68261 -1.88637,29.59398 9.05714,40.53749c4.9291,4.9291 10.85953,8.24962 17.14526,9.96156c2.35796,-3.0815 6.07901,-5.07122 10.26519,-5.07122s7.90077,1.98973 10.25873,5.07122c6.28573,-1.71194 12.22262,-5.03246 17.15172,-9.96156c8.75997,-8.75997 12.74589,-20.82755 10.93705,-33.10185c-0.52327,-3.52725 1.91867,-6.81547 5.44591,-7.33228c3.49495,-0.56203 6.80901,1.91867 7.33228,5.45237c2.37734,16.11163 -3.07504,32.60442 -14.58058,44.11642c-7.03511,7.03511 -15.6142,11.61536 -24.65196,13.7343c-1.97035,4.61901 -6.5506,7.85555 -11.89315,7.85555s-9.9228,-3.23654 -11.89315,-7.85555c-9.04422,-2.12539 -17.61685,-6.69918 -24.65196,-13.7343c-14.58704,-14.58704 -18.61172,-35.79574 -12.0805,-54.04568c-1.90575,-2.2546 -3.06211,-5.16167 -3.06211,-8.34652c0,-7.13847 5.78184,-12.92032 12.92032,-12.92032c1.36309,0 2.67451,0.21319 3.9084,0.60079c18.65694,-17.06128 46.88783,-17.95278 66.54609,-2.66805l6.04025,-6.04025c0.85274,-0.85274 1.28557,-2.02849 1.18867,-3.23008c-0.05814,-0.73 -0.34239,-1.7507 -1.34371,-2.46778c-27.86912,-19.96835 -66.61069,-14.52244 -88.18116,12.4035c-18.64402,23.28241 -18.64402,57.06904 0,80.35144c12.44226,15.52376 30.88602,24.42586 50.60888,24.42586s38.24413,-8.9021 50.6864,-24.42586c14.8842,-18.57941 18.1272,-44.80766 8.26254,-66.81095c-1.46,-3.25592 0,-7.08033 3.24946,-8.53387c3.24946,-1.46646 7.07387,0 8.54033,3.24946c11.82855,26.38329 7.91369,57.85071 -9.96802,80.17056l-0.00646,0z"/>
</svg>
