<svg width="250" height="250" xmlns="http://www.w3.org/2000/svg">
    <rect width="100%" height="100%" fill="#9eceff"/>
    <g stroke="null">
        <circle stroke="null" fill="#59F" r="75.28568" cy="124.99999" cx="125"/>
        <path stroke="null" d="m190.62088,119.14653a66.19493,66.19493 0 0 0 -33.36097,-51.57069c-0.86579,0.91284 -1.10105,0.37643 -1.10105,1.28927c-2.60677,0.91284 -6.07932,-0.91284 -8.68609,-1.82568a30.39659,30.39659 0 0 0 -19.96953,-0.91284c-2.60677,0.91284 -8.67667,1.82568 -6.07932,7.30271c1.73157,2.74793 6.06991,5.48644 10.41766,1.83509c1.73157,-1.82568 3.48196,-4.56419 6.06991,-1.82568c0.8752,0.92225 0.8752,1.83509 0.8752,2.74793c-0.8752,2.72911 -3.48196,3.65136 -6.07932,3.65136c-3.48196,0.91284 -6.96393,0 -10.42707,0.91284c-3.48196,0.91284 -8.68609,1.82568 -8.68609,6.39928c0,5.45821 -1.74098,6.38046 -6.08873,7.2933c-3.48196,0 -5.20412,1.82568 -3.48196,5.47703c0.8752,2.72911 3.48196,2.72911 5.22294,1.82568c6.9451,-3.65136 13.02442,-12.77974 20.83531,-1.82568l1.73157,-0.91284c1.74098,-7.30271 3.48196,-2.72911 5.21353,0l2.60677,2.72911c10.41766,-10.03182 7.81089,4.57361 11.29285,7.30271c-6.96393,-1.82568 -14.77481,5.47703 -20.84472,0.91284c-10.41766,-8.20614 -17.36276,-4.55478 -26.91463,3.65136c-7.81089,6.39928 -9.55187,14.60542 -7.81089,21.90813c2.59736,9.12839 12.13982,10.04123 19.96953,8.21555c2.59736,-0.92225 7.81089,-0.92225 7.81089,0.90343c-1.74098,8.21555 7.81089,13.69258 4.32893,22.81156c-2.59736,7.30271 1.75039,16.4311 7.81089,19.16962c6.08873,2.72911 11.29285,-4.56419 13.90903,-10.95407c0.86579,-0.91284 0,-2.72911 0.86579,-3.65136c6.9451,-9.12839 6.07932,-22.81156 14.75599,-31.93995c2.60677,-2.72911 11.29285,-12.77033 4.32893,-20.98588c16.50639,-4.56419 10.44589,11.85749 13.90903,19.16962c2.59736,-5.47703 4.32893,-10.95407 6.06991,-15.52767c0.86579,-2.72911 1.50571,-3.57607 1.50571,-3.57607zm-94.34237,-48.63455c2.72911,-2.87968 2.85145,-3.35021 5.58996,-7.19919a63.40936,63.40936 0 0 0 -18.0968,10.34237l1.581,1.6657l8.21555,0s0.91284,0 0.91284,-0.94107l0.91284,-0.9693s0.91284,0 0.91284,-0.95989l0.90343,-0.95989l0.91284,-0.9693c-2.72911,1.9292 -2.72911,0.9693 -1.82568,0c0,0.9693 0,0.9693 0,0c0,0.9693 0,0 0,0l-0.01882,-0.00941zm-12.06453,88.8371s-0.90343,-0.86579 0,0c-0.90343,-0.86579 -0.90343,-0.86579 0,0l0,-2.59736l-0.90343,-0.86579c-0.89402,0 -0.89402,-0.8752 -1.78803,-0.8752s-1.78803,-0.8752 -2.69146,-0.8752l-1.79745,0s-0.89402,0 -0.89402,-0.86579c-6.28635,-3.48196 -8.96841,-9.55187 -10.76585,-16.48756c0,-1.74098 -0.89402,-3.48196 -0.89402,-5.21353c-0.88461,-0.8752 -0.88461,-1.74098 -1.78803,-2.61618c-1.78803,-1.73157 -0.88461,-5.20412 0.90343,-8.67667l0,-1.73157c0,-0.8752 0,-0.8752 0.89402,-1.74098c0,-0.84696 0,-0.84696 0.90343,-1.72216c1.78803,-3.48196 5.38293,-6.07932 7.17096,-8.68609c0.89402,-0.86579 0.89402,-0.86579 0.89402,-1.73157l0,-0.86579c0.89402,-0.86579 0.89402,-2.60677 1.78803,-3.48196c0,-0.84696 0.90343,-2.59736 0.90343,-3.46314c0,-1.74098 0,-2.60677 -0.90343,-4.32893c-0.90343,-2.61618 -1.44925,-4.87475 -3.23728,-6.61573c-8.07439,11.29285 -12.89267,23.95967 -12.89267,38.70625c0,19.97894 8.49787,37.6993 22.71745,50.10262c0,0 0.57405,0.24468 0.57405,-0.60229l0,-0.88461c0,-0.86579 0.89402,-0.86579 0.89402,-1.73157c0.90343,-3.48196 0.90343,-8.67667 0.91284,-12.14923z" fill="#AAD400"/>
        <path stroke="null" opacity="0.2" d="m125,200.28567c-41.51064,0 -75.28568,-33.77504 -75.28568,-75.28568s33.77504,-75.28568 75.28568,-75.28568s75.28568,33.77504 75.28568,75.28568s-33.77504,75.28568 -75.28568,75.28568zm0,-141.16065c-36.32534,0 -65.87497,29.54963 -65.87497,65.87497c0,36.31593 29.54963,65.87497 65.87497,65.87497c36.31593,0 65.87497,-29.55904 65.87497,-65.87497c0,-36.32534 -29.55904,-65.87497 -65.87497,-65.87497z" fill="#212121"/>
        <path stroke="null" d="m172.05355,106.17857l-94.1071,0l0,64.87743a65.64911,65.64911 0 0 0 47.05355,19.81896c18.44499,0 35.09254,-7.60385 47.05355,-19.81896l0,-64.87743z" fill="#FFF"/>
        <path stroke="null" d="m172.05355,106.17857l-94.1071,0l0,64.87743c2.87968,2.93614 6.03227,5.59937 9.41071,7.96146l0,-63.42819l75.28568,0l0,63.42819a66.12906,66.12906 0 0 0 9.41071,-7.96146l0,-64.87743z" fill="#666"/>
        <path stroke="null" d="m96.76786,128.48106l56.46426,0l0,9.41071l-56.46426,0l0,-9.41071zm0,18.82142l56.46426,0l0,9.41071l-56.46426,0l0,-9.41071z" fill="#B9B9B9"/>
        <path stroke="null" d="m96.76787,147.92832l56.46426,0l0,9.41071l-56.46426,0l0,-9.41071zm0,18.82142l56.46426,0l0,9.41071l-56.46426,0l0,-9.41071z" fill="#B9B9B9"/>
    </g>
</svg>
